<svg width="64" height="64" viewBox="0 0 64 64" fill="none" xmlns="http://www.w3.org/2000/svg">
  <rect width="64" height="64" rx="14" fill="#FAFAF8"/>
  <path
    d="M440 220V330H676Q696 330 713 339.5Q730 349 740 365.5Q750 382 750 402V550H870V520Q870 485 860 459.5Q850 434 827 411L677 263Q655 241 629 230.5Q603 220 568 220ZM440 330H568Q603 330 629 320Q655 310 677 287L827 139Q850 117 860 91Q870 65 870 30V0H750V148Q750 178 728 199Q706 220 676 220H440ZM30 0V250Q30 285 41 310Q52 335 73 359L223 507Q247 528 272 539Q297 550 332 550H820V440H224Q193 440 171.5 424Q150 408 150 385Q150 363 171.5 346.5Q193 330 224 330H561V220H338Q303 220 277.5 230.5Q252 241 229 263L150 336V0Z"
    fill="#151313"
    transform="translate(6.286 47.7) scale(0.057142 -0.057142)"
  />
</svg>
