<svg width="64" height="64" viewBox="0 0 64 64" fill="none" xmlns="http://www.w3.org/2000/svg">
  <rect width="64" height="64" rx="14" fill="#FAFAF8"/>
  <path
    d="M30 300V550H150V182Q150 152 172 131Q194 110 224 110H676Q706 110 728 131Q750 152 750 182V550H870V300Q870 265 860 239.5Q850 214 827 191L677 43Q655 21 629 10.5Q603 0 568 0H332Q297 0 271.5 10.5Q246 21 223 43L73 191Q51 214 40.5 239.5Q30 265 30 300Z"
    fill="#151313"
    transform="translate(6.286 47.7) scale(0.057142 -0.057142)"
  />
</svg>
